<svg width="173" height="173" viewBox="0 0 173 173" fill="none" xmlns="http://www.w3.org/2000/svg">
    <path fill-rule="evenodd" clip-rule="evenodd" d="M85.935 73.6639C104.658 59.7608 132.742 32.3268 122.853 15.6926C110.355 -5.33111 91.209 7.49969 85.935 12.0927C81.1883 6.83763 64.8388 -3.05181 51.6536 12.0927C38.409 27.3056 67.8274 58.3953 85.935 73.6639ZM85.935 99.3361C104.658 113.239 132.742 140.673 122.853 157.307C110.355 178.331 91.209 165.5 85.935 160.907C81.1883 166.162 64.8388 176.052 51.6536 160.907C38.409 145.694 67.8274 114.605 85.935 99.3361ZM16.4194 52.1364C34.0875 42.8263 63.2267 69.2671 77.994 86.8944C61.7763 103.942 28.7542 131.639 12.5957 119.17C-3.49013 106.756 7.014 91.3633 12.5957 86.8944C7.71721 81.929 -5.91111 63.9034 16.4194 52.1364ZM95.006 86.8675C109.773 69.2403 138.912 42.7994 156.581 52.1096C178.911 63.8766 165.283 81.9021 160.404 86.8675C165.986 91.3364 176.49 106.729 160.404 119.143C144.246 131.612 111.224 103.915 95.006 86.8675Z" fill="#81FDC0"/>
    <path d="M122.853 15.6926L126.292 13.6486L126.292 13.6486L122.853 15.6926ZM85.935 73.6639L83.3565 76.7219L85.7774 78.7632L88.3197 76.8753L85.935 73.6639ZM85.935 12.0927L82.9666 14.7739L85.5997 17.6889L88.562 15.1092L85.935 12.0927ZM51.6536 12.0927L48.6368 9.46618L48.6368 9.46618L51.6536 12.0927ZM122.853 157.307L126.292 159.351L126.292 159.351L122.853 157.307ZM85.935 99.3361L88.3197 96.1247L85.7774 94.2368L83.3565 96.2781L85.935 99.3361ZM85.935 160.907L88.562 157.891L85.5997 155.311L82.9666 158.226L85.935 160.907ZM51.6536 160.907L48.6368 163.534L48.6368 163.534L51.6536 160.907ZM77.994 86.8944L80.8921 89.6514L83.3539 87.0635L81.0602 84.3256L77.994 86.8944ZM16.4194 52.1364L14.5547 48.5977L14.5547 48.5977L16.4194 52.1364ZM12.5957 119.17L15.0395 116.003L15.0395 116.003L12.5957 119.17ZM12.5957 86.8944L15.0957 90.0169L18.5522 87.2495L15.449 84.091L12.5957 86.8944ZM156.581 52.1096L158.445 48.5708L158.445 48.5708L156.581 52.1096ZM95.006 86.8675L91.9398 84.2988L89.6461 87.0367L92.1078 89.6245L95.006 86.8675ZM160.404 86.8675L157.551 84.0642L154.448 87.2227L157.904 89.99L160.404 86.8675ZM160.404 119.143L157.961 115.976L157.961 115.976L160.404 119.143ZM119.415 17.7367C121.142 20.6411 121.384 24.2335 120.058 28.6662C118.716 33.1498 115.857 38.1344 111.941 43.2798C104.122 53.5522 92.7369 63.6307 83.5503 70.4525L88.3197 76.8753C97.856 69.7939 109.874 59.2039 118.307 48.125C122.516 42.5948 125.994 36.7331 127.722 30.9599C129.465 25.136 129.509 19.0613 126.292 13.6486L119.415 17.7367ZM88.562 15.1092C90.9571 13.0233 96.3866 9.21262 102.335 8.23325C105.216 7.75881 108.107 7.96487 110.874 9.24512C113.638 10.524 116.618 13.0317 119.415 17.7367L126.292 13.6486C122.84 7.84171 118.739 4.0693 114.233 1.9846C109.731 -0.0987742 105.162 -0.339902 101.035 0.339525C92.9674 1.66786 86.187 6.56907 83.308 9.07623L88.562 15.1092ZM54.6705 14.7192C60.2541 8.3059 66.1572 7.38527 71.1919 8.36867C76.5568 9.41657 81.0896 12.6958 82.9666 14.7739L88.9034 9.41151C86.0337 6.23452 80.0184 1.94151 72.7255 0.517048C65.1025 -0.971912 56.2383 0.735002 48.6368 9.46618L54.6705 14.7192ZM88.5135 70.606C79.5976 63.0879 68.0126 51.7619 60.3335 40.5914C56.4804 34.9866 53.7988 29.688 52.7805 25.1147C51.7848 20.6425 52.4405 17.2806 54.6705 14.7192L48.6368 9.46618C44.2444 14.5113 43.6107 20.7404 44.9717 26.8533C46.3102 32.865 49.6316 39.1456 53.741 45.1234C61.9868 57.1181 74.1648 68.9713 83.3565 76.7219L88.5135 70.606ZM126.292 159.351C129.509 153.939 129.465 147.864 127.722 142.04C125.994 136.267 122.516 130.405 118.307 124.875C109.874 113.796 97.856 103.206 88.3197 96.1247L83.5503 102.547C92.7369 109.369 104.122 119.448 111.941 129.72C115.857 134.866 118.716 139.85 120.058 144.334C121.384 148.767 121.142 152.359 119.415 155.263L126.292 159.351ZM83.308 163.924C86.187 166.431 92.9674 171.332 101.035 172.66C105.162 173.34 109.731 173.099 114.233 171.015C118.739 168.931 122.84 165.158 126.292 159.351L119.415 155.263C116.618 159.968 113.638 162.476 110.874 163.755C108.107 165.035 105.216 165.241 102.335 164.767C96.3866 163.787 90.9571 159.977 88.562 157.891L83.308 163.924ZM48.6368 163.534C56.2383 172.265 65.1025 173.972 72.7255 172.483C80.0184 171.058 86.0337 166.765 88.9034 163.588L82.9666 158.226C81.0896 160.304 76.5568 163.583 71.1919 164.631C66.1572 165.615 60.2541 164.694 54.6705 158.281L48.6368 163.534ZM83.3565 96.2781C74.1648 104.029 61.9868 115.882 53.741 127.877C49.6316 133.854 46.3102 140.135 44.9717 146.147C43.6107 152.26 44.2444 158.489 48.6368 163.534L54.6705 158.281C52.4405 155.719 51.7848 152.357 52.7805 147.885C53.7988 143.312 56.4804 138.013 60.3335 132.409C68.0126 121.238 79.5976 109.912 88.5135 102.394L83.3565 96.2781ZM81.0602 84.3256C73.5282 75.3349 62.2803 64.024 50.5316 56.0979C44.6612 52.1376 38.4831 48.8968 32.4432 47.2945C26.3817 45.6865 20.1394 45.6548 14.5547 48.5977L18.2841 55.6752C21.5335 53.963 25.5591 53.745 30.3919 55.0271C35.2461 56.3148 40.5885 59.0403 46.0574 62.7298C56.9872 70.1034 67.6925 80.8266 74.9278 89.4631L81.0602 84.3256ZM10.1519 122.336C15.4052 126.39 21.8063 126.956 28.1249 125.709C34.3997 124.471 41.0096 121.383 47.3541 117.517C60.0686 109.769 72.6523 98.313 80.8921 89.6514L75.0959 84.1374C67.118 92.5237 55.0818 103.44 43.1912 110.685C37.2332 114.316 31.5442 116.88 26.576 117.86C21.6515 118.832 17.8654 118.184 15.0395 116.003L10.1519 122.336ZM10.0957 83.7719C6.74966 86.4508 2.11334 92.1615 0.564098 99.192C-0.229717 102.794 -0.22317 106.809 1.26731 110.89C2.75831 114.973 5.63539 118.851 10.1519 122.336L15.0395 116.003C11.5131 113.282 9.67102 110.581 8.78183 108.146C7.89212 105.71 7.85746 103.27 8.37666 100.914C9.45346 96.027 12.8601 91.8068 15.0957 90.0169L10.0957 83.7719ZM14.5547 48.5977C8.45922 51.8097 4.42659 55.6578 2.16925 59.9824C-0.104379 64.3381 -0.373203 68.7877 0.37145 72.7965C1.81358 80.5603 7.10083 87.0091 9.74242 89.6977L15.449 84.091C13.2121 81.8143 9.24593 76.7676 8.23691 71.3355C7.75598 68.7464 7.96214 66.173 9.26121 63.6843C10.5766 61.1644 13.2143 58.3467 18.2841 55.6752L14.5547 48.5977ZM158.445 48.5708C152.861 45.628 146.618 45.6597 140.557 47.2677C134.517 48.87 128.339 52.1108 122.468 56.0711C110.72 63.9972 99.4718 75.3081 91.9398 84.2988L98.0722 89.4363C105.307 80.7997 116.013 70.0766 126.943 62.703C132.411 59.0135 137.754 56.288 142.608 55.0002C147.441 53.7182 151.467 53.9361 154.716 55.6483L158.445 48.5708ZM163.258 89.6709C165.899 86.9822 171.186 80.5334 172.629 72.7697C173.373 68.7608 173.104 64.3112 170.831 59.9555C168.573 55.631 164.541 51.7828 158.445 48.5708L154.716 55.6483C159.786 58.3199 162.423 61.1375 163.739 63.6574C165.038 66.1461 165.244 68.7196 164.763 71.3086C163.754 76.7408 159.788 81.7874 157.551 84.0642L163.258 89.6709ZM162.848 122.309C167.365 118.824 170.242 114.946 171.733 110.863C173.223 106.782 173.23 102.767 172.436 99.1651C170.887 92.1346 166.25 86.424 162.904 83.745L157.904 89.99C160.14 91.78 163.547 96.0002 164.623 100.887C165.143 103.243 165.108 105.683 164.218 108.119C163.329 110.554 161.487 113.255 157.961 115.976L162.848 122.309ZM92.1078 89.6245C100.348 98.2862 112.931 109.742 125.646 117.49C131.99 121.356 138.6 124.444 144.875 125.682C151.194 126.929 157.595 126.363 162.848 122.309L157.961 115.976C155.135 118.157 151.348 118.805 146.424 117.833C141.456 116.853 135.767 114.289 129.809 110.658C117.918 103.413 105.882 92.4968 97.9041 84.1106L92.1078 89.6245Z" fill="#016533"/>
</svg>    